# xmcd CD database file
#
# Track frame offsets:
#	150
#	23122
#	36972
#	55589
#	79001
#	98830
#	113226
#	140726
#	160759
#	183642
#
# Disc length: 2731 seconds
#
# Revision: 3
# Processed by: cddbd v1.5.1PL2 Copyright (c) Steve Scherf et al.
# Submitted via: CDex 1.50
#
DISCID=7e0aa90a
DTITLE=Various Artist - Inspirational Lifestyles - Looking up
DYEAR=1998
DGENRE=Gospel
TTITLE0=He Can Do The Impossible - Witness
TTITLE1=King Jesus Is A Listenin' - LA Mass Choir
TTITLE2=Peace In My Heart - Melvin Williams
TTITLE3=Keep Pressin' On - Hubert Powell
TTITLE4=I'm Blessed - Greater Emmanuel Mass Choir
TTITLE5=When You Pray - Tramaine Hawkins
TTITLE6=My Soul Is Anchored In The Lord - Douglas Miller
TTITLE7=Keep On Climbing - Vickie Winans
TTITLE8=I Shall Not Be Defeated - LA Mass Choir
TTITLE9=Just As You Are - Witness
EXTD=YEAR: 1998
EXTT0=
EXTT1=
EXTT2=
EXTT3=
EXTT4=
EXTT5=
EXTT6=
EXTT7=
EXTT8=
EXTT9=
PLAYORDER=
